<?xml version="1.0" encoding="UTF-8" standalone="no"?>
<svg width="257px" height="110px" viewBox="0 0 257 110" version="1.1" xmlns="http://www.w3.org/2000/svg" xmlns:xlink="http://www.w3.org/1999/xlink" xmlns:sketch="http://www.bohemiancoding.com/sketch/ns">
    <!-- Generator: Sketch 3.3.1 (12005) - http://www.bohemiancoding.com/sketch -->
    <title>Slice 1</title>
    <desc>Created with Sketch.</desc>
    <defs></defs>
    <g id="Page-1" stroke="none" stroke-width="1" fill="none" fill-rule="evenodd" sketch:type="MSPage">
        <g id="Scala" sketch:type="MSLayerGroup" fill="#495819">
            <path d="M0.5,42.4 C0.5,42.4 63.4,48.7 63.4,59.2 L63.4,34 C63.4,34 63.4,23.5 0.5,17.2 L0.5,27 L0.5,42.4 Z M0.5,76 C0.5,76 63.4,82.3 63.4,92.8 L63.4,67.6 C63.4,67.6 63.4,57.1 0.5,50.8 L0.5,76 Z" id="Shape" opacity="0.598414179" sketch:type="MSShapeGroup"></path>
            <path d="M63.5,0.5 L63.5,25.7 C63.5,25.7 63.5,36.2 0.6,42.5 L0.6,17.2 C0.5,17.2 63.5,11 63.5,0.5 L63.5,0.5 Z M0.5,50.8 C0.5,50.8 63.4,44.5 63.4,34 L63.4,59.2 C63.4,59.2 63.4,69.7 0.5,76 L0.5,50.8 L0.5,50.8 Z M0.5,109.5 L0.5,84.3 C0.5,84.3 63.4,78 63.4,67.5 L63.4,92.7 C63.5,92.8 63.5,103.2 0.5,109.5 L0.5,109.5 Z" id="Shape" sketch:type="MSShapeGroup"></path>
        </g>
        <path d="M239.358645,34.913979 C239.346217,25.0677235 233.709654,16.4375391 225.254883,11.6135123 L229.946797,3.1490743 C230.51452,2.12487595 230.144422,0.83376762 229.11986,0.265843768 C228.097383,-0.300924473 226.804388,0.0679997058 226.236531,1.09244011 L221.426277,9.77036789 C217.819352,8.33252313 213.842285,7.53580794 209.663629,7.53580794 C205.482214,7.53580794 201.502655,8.33357554 197.893837,9.77321669 L193.082004,1.09244011 C192.514147,0.0679997058 191.221152,-0.300924473 190.198675,0.265843768 C189.174113,0.83376762 188.804015,2.12487595 189.371737,3.1490743 L194.065748,11.6172943 C185.614659,16.4420489 179.981038,25.0702961 179.968613,34.913979 L239.358645,34.913979 L239.358645,34.913979 L239.358645,34.913979 Z M179.968592,37.2634764 L179.968592,80.3053749 C179.968592,84.2698575 183.182565,87.4839833 187.147201,87.4839833 L190.737122,87.4839833 L190.737122,102.165642 C190.737122,106.494289 194.243475,110 198.56878,110 C202.895036,110 206.400438,106.492438 206.400438,102.165642 L206.400438,87.4839833 L212.918097,87.4839833 L212.918097,102.165642 C212.918097,106.492438 216.423498,110 220.749755,110 C225.07506,110 228.581413,106.494289 228.581413,102.165642 L228.581413,87.4839833 L232.180057,87.4839833 C236.14454,87.4839833 239.358665,84.2700108 239.358665,80.3053749 L239.358665,37.2634764 L179.968592,37.2634764 L179.968592,37.2634764 Z M256.318535,42.7809692 C256.318535,38.4541726 252.813133,34.9466109 248.486877,34.9466109 C244.161572,34.9466109 240.655219,38.4523224 240.655219,42.7809692 L240.655219,70.5126907 C240.655219,74.8394872 244.16062,78.3470489 248.486877,78.3470489 C252.812182,78.3470489 256.318535,74.8413375 256.318535,70.5126907 L256.318535,42.7809692 L256.318535,42.7809692 Z M163,42.7809692 C163,38.4541726 166.505402,34.9466109 170.831658,34.9466109 C175.156963,34.9466109 178.663316,38.4523224 178.663316,42.7809692 L178.663316,70.5126907 C178.663316,74.8394872 175.157914,78.3470489 170.831658,78.3470489 C166.506353,78.3470489 163,74.8413375 163,70.5126907 L163,42.7809692 L163,42.7809692 Z M196.121387,24.1780812 C197.473045,24.1780812 198.56878,23.0823459 198.56878,21.730688 C198.56878,20.3790302 197.473045,19.2832949 196.121387,19.2832949 C194.769729,19.2832949 193.673994,20.3790302 193.673994,21.730688 C193.673994,23.0823459 194.769729,24.1780812 196.121387,24.1780812 L196.121387,24.1780812 L196.121387,24.1780812 Z M223.205871,24.1780812 C224.557529,24.1780812 225.653264,23.0823459 225.653264,21.730688 C225.653264,20.3790302 224.557529,19.2832949 223.205871,19.2832949 C221.854213,19.2832949 220.758478,20.3790302 220.758478,21.730688 C220.758478,23.0823459 221.854213,24.1780812 223.205871,24.1780812 L223.205871,24.1780812 L223.205871,24.1780812 Z" id="Rectangle-path" fill="#495819" sketch:type="MSShapeGroup"></path>
        <path d="M90.0742188,53.2578125 L90.0742188,51.4121094 C90.0742188,48.9511596 90.5019488,46.7773532 91.3574219,44.890625 C92.2128949,43.0038968 93.4228437,41.5595753 94.9873047,40.5576172 C96.5517656,39.5556591 98.3417868,39.0546875 100.357422,39.0546875 C102.408213,39.0546875 104.215812,39.5497997 105.780273,40.5400391 C107.344734,41.5302784 108.548824,42.9658109 109.392578,44.8466797 C110.236332,46.7275485 110.658203,48.9160031 110.658203,51.4121094 L110.658203,53.0292969 C110.658203,55.5371219 110.236332,57.7255766 109.392578,59.5947266 C108.548824,61.4638765 107.353523,62.8906201 105.806641,63.875 C104.259758,64.8593799 102.455088,65.3515625 100.392578,65.3515625 C98.376943,65.3515625 96.5898515,64.8564503 95.03125,63.8662109 C93.4726485,62.8759716 92.2626996,61.4638764 91.4013672,59.6298828 C90.5400348,57.7958893 90.0976564,55.6718871 90.0742188,53.2578125 L90.0742188,53.2578125 Z M93.4316406,53.0292969 C93.4316406,55.9707178 94.0497985,58.2822182 95.2861328,59.9638672 C96.5224671,61.6455162 98.2245985,62.4863281 100.392578,62.4863281 C102.572277,62.4863281 104.25976,61.6923908 105.455078,60.1044922 C106.650397,58.5165936 107.265625,56.2402492 107.300781,53.2753906 L107.300781,51.3769531 C107.300781,48.3417817 106.691412,46.0127034 105.472656,44.3896484 C104.2539,42.7665934 102.548839,41.9550781 100.357422,41.9550781 C98.2245987,41.9550781 96.5459046,42.7665934 95.3212891,44.3896484 C94.0966736,46.0127034 93.4667971,48.2656106 93.4316406,51.1484375 L93.4316406,53.0292969 Z M115.720703,65 L115.720703,39.40625 L119.113281,39.40625 L132.033203,59.2167969 L132.033203,39.40625 L135.390625,39.40625 L135.390625,65 L131.998047,65 L119.113281,45.2773438 L119.113281,65 L115.720703,65 Z" id="ON" fill="#495819" sketch:type="MSShapeGroup"></path>
    </g>
</svg>