<?xml version="1.0" encoding="UTF-8" standalone="no"?>
<svg width="286px" height="338px" viewBox="0 0 286 338" version="1.1" xmlns="http://www.w3.org/2000/svg" xmlns:xlink="http://www.w3.org/1999/xlink" xmlns:sketch="http://www.bohemiancoding.com/sketch/ns">
    <!-- Generator: Sketch 3.3.1 (12005) - http://www.bohemiancoding.com/sketch -->
    <title>Slice 1</title>
    <desc>Created with Sketch.</desc>
    <defs></defs>
    <g id="Page-1" stroke="none" stroke-width="1" fill="none" fill-rule="evenodd" sketch:type="MSPage">
        <g id="scala-android-icon" sketch:type="MSLayerGroup">
            <g id="Page-1" sketch:type="MSShapeGroup">
                <path d="M233.999937,107.9 C233.961852,77.7262958 216.688688,51.2792234 190.779167,36.4960647 L205.15747,10.5569197 C206.897247,7.418279 205.763086,3.46169664 202.623331,1.7213024 C199.489966,-0.0155504854 195.527602,1.1150122 193.787414,4.25439466 L179.046462,30.8477759 C167.993092,26.4415219 155.80543,24 143,24 C130.186115,24 117.990815,26.444747 106.931646,30.856506 L92.1858548,4.25439466 C90.4456666,1.1150122 86.4833029,-0.0155504854 83.3499373,1.7213024 C80.210183,3.46169664 79.0760216,7.418279 80.8157986,10.5569197 L95.2005258,36.5076546 C69.302287,51.2930437 52.0381381,77.7341795 52.0000631,107.9 L233.999938,107.9 L233.999937,107.9 L233.999937,107.9 Z M52,115.1 L52,247.001261 C52,259.150359 61.8491708,269 73.9987387,269 L85,269 L85,313.991725 C85,327.256799 95.745166,338 109,338 C122.257748,338 133,327.251129 133,313.991725 L133,269 L152.973269,269 L152.973269,313.991725 C152.973269,327.251129 163.71552,338 176.973269,338 C190.228103,338 200.973269,327.256799 200.973269,313.991725 L200.973269,269 L212.001261,269 C224.150359,269 234,259.150829 234,247.001261 L234,115.1 L52,115.1 L52,115.1 Z M285.973269,132.008275 C285.973269,118.748871 275.231017,108 261.973269,108 C248.718435,108 237.973269,118.743201 237.973269,132.008275 L237.973269,216.991725 C237.973269,230.251129 248.71552,241 261.973269,241 C275.228103,241 285.973269,230.256799 285.973269,216.991725 L285.973269,132.008275 L285.973269,132.008275 Z M0,132.008275 C0,118.748871 10.7422516,108 24,108 C37.254834,108 48,118.743201 48,132.008275 L48,216.991725 C48,230.251129 37.2577484,241 24,241 C10.745166,241 0,230.256799 0,216.991725 L0,132.008275 L0,132.008275 Z M101.5,75 C105.642136,75 109,71.6421356 109,67.5 C109,63.3578644 105.642136,60 101.5,60 C97.3578644,60 94,63.3578644 94,67.5 C94,71.6421356 97.3578644,75 101.5,75 L101.5,75 L101.5,75 Z M184.5,75 C188.642136,75 192,71.6421356 192,67.5 C192,63.3578644 188.642136,60 184.5,60 C180.357864,60 177,63.3578644 177,67.5 C177,71.6421356 180.357864,75 184.5,75 L184.5,75 L184.5,75 Z" id="Rectangle-path" fill="#A4C639"></path>
                <path d="M188.377365,42.0151448 C175.827583,42.0992712 163.733948,46.0315737 151.415643,47.6040786 C146.274537,48.2604098 140.975743,48.4212086 135.825997,47.8110126 C128.97884,46.9995695 122.349613,44.8442135 115.506983,43.8780074 C109.391867,43.0150761 103.200337,42.1134732 97.0468259,42.0776179 C86.293045,42.0137246 75.8926738,45.3887319 65.3507886,47.2111239 C65.3507886,50.3021611 64.7241428,54.2699628 66.3003408,56.4426929 C67.9262264,58.6835955 70.6687742,60.7331692 71.3800981,63.7698847 C73.0669475,70.9721254 75.4621123,78.0320258 78.5245681,84.8001482 C80.0126999,88.0892528 82.8214861,90.3823233 85.9580807,91.9619231 C93.5112822,95.7657285 102.451001,96.3251516 110.736973,95.1289174 C122.537034,93.4254384 128.938953,84.5502511 133.822986,74.4092569 C135.650989,70.2870585 135.854976,65.5294442 138.26256,61.7618533 C139.692354,59.5245044 143.012981,60.4662415 145.385954,60.4580627 C147.759291,60.4499037 149.770943,64.4067007 150.507105,67.040548 C153.113783,76.3612074 157.459624,86.2501814 166.097126,91.133788 C178.995415,98.4268935 199.315933,97.0627707 207.684693,83.9098863 C210.959801,78.7621882 211.864216,72.516582 213.507397,66.6887665 C214.507753,63.1405349 215.401614,58.910421 218.958966,56.959891 C220.394422,56.1725707 219.386914,53.0314884 219.598792,51.2055506 C219.829894,49.2163268 220.275123,47.4564055 217.45127,47.0659451 C212.526204,46.3840606 207.748687,44.3110542 202.708081,43.6092931 C197.931294,42.9440903 193.251238,41.9828532 188.377364,42.0151448 L188.377365,42.0151448 L188.377365,42.0151448 Z M105.40959,45.3269744 C108.972218,45.3046059 112.519431,45.5658665 115.981951,46.2999342 C136.612592,50.6741651 137.029602,59.1947426 128.53662,76.8105918 C121.616084,91.1643156 107.280095,94.760813 92.8345913,91.3201427 C86.1752453,89.7345072 81.6220218,85.0748903 79.4745051,78.6940359 C77.2076765,71.9592822 75.4933526,64.8042606 75.881383,57.7255401 C76.4015102,48.2472693 87.0965809,46.9150767 94.7547841,46.0514527 C98.2688701,45.655313 101.847315,45.3496892 105.40959,45.3269741 L105.40959,45.3269744 L105.40959,45.3269744 Z M180.737211,45.3269744 C184.29985,45.3496892 187.878301,45.655313 191.392391,46.051453 C199.0502,46.915077 209.746038,48.2472696 210.26542,57.7255404 C210.653441,64.804261 208.939104,71.9592822 206.672303,78.6940363 C204.524761,85.0748906 199.97155,89.7345075 193.312579,91.320143 C178.867456,94.7608133 164.531087,91.1643159 157.610171,76.8105921 C149.117199,59.1947429 149.534583,50.6741654 170.16522,46.2999345 C173.627754,45.5658668 177.174957,45.3046062 180.737211,45.3269748 L180.737211,45.3269744 L180.737211,45.3269744 Z" id="path2830" stroke="#000000" stroke-width="5" fill="#000000"></path>
                <path d="M225.738281,115.083984 C202.833008,155.921875 136.521484,163.8125 52,171.291015 L52,246 C52,246 205.738281,249 234,229 L234,115.083984 L225.738281,115.083984 L225.738281,115.083984 Z" id="Path-7" fill="#D00000"></path>
                <path d="M52,167 C85.3837891,167 176.148438,162.181641 201,115 L234,115 L234,121 C186.183594,175 79.8408203,178 52,178 L52,167 L52,167 Z" id="Path-11" fill="#8F1800"></path>
            </g>
        </g>
    </g>
</svg>