<?xml version="1.0" encoding="UTF-8" standalone="no"?>
<svg width="108px" height="115px" viewBox="0 0 108 115" version="1.1" xmlns="http://www.w3.org/2000/svg" xmlns:xlink="http://www.w3.org/1999/xlink" xmlns:sketch="http://www.bohemiancoding.com/sketch/ns">
    <!-- Generator: Sketch 3.3.1 (12005) - http://www.bohemiancoding.com/sketch -->
    <title>Slice 1</title>
    <desc>Created with Sketch.</desc>
    <defs></defs>
    <g id="Page-1" stroke="none" stroke-width="1" fill="none" fill-rule="evenodd" sketch:type="MSPage">
        <g id="scala-android-logo" sketch:type="MSLayerGroup" fill="#A4C639">
            <g id="Page-1" sketch:type="MSShapeGroup">
                <path d="M16.968592,42.2634764 L16.968592,85.3053749 C16.968592,89.2698575 20.182565,92.4839833 24.147201,92.4839833 L27.737122,92.4839833 L27.737122,107.165642 C27.737122,111.494289 31.243475,115 35.56878,115 C39.895036,115 43.400438,111.492438 43.400438,107.165642 L43.400438,92.4839833 L49.918097,92.4839833 L49.918097,107.165642 C49.918097,111.492438 53.423498,115 57.749755,115 C62.07506,115 65.581413,111.494289 65.581413,107.165642 L65.581413,92.4839833 L69.180057,92.4839833 C73.14454,92.4839833 76.358665,89.2700108 76.358665,85.3053749 L76.358665,42.2634764 L16.968592,42.2634764 L16.968592,42.2634764 Z M106.206534,29.2544713 C108.369933,25.5073555 107.087946,20.717017 103.341299,18.553889 C99.5954748,16.3912365 94.8060283,17.6740952 92.6417049,21.4228133 L78.7758441,45.4391886 C76.6124459,49.1863043 77.8944313,53.9766423 81.6410798,56.1397708 C85.3869038,58.3024233 90.1763503,57.0195647 92.3406737,53.2708466 L106.206534,29.2544713 L106.206534,29.2544713 Z M0,47.7809692 C0,43.4541726 3.505402,39.9466109 7.831658,39.9466109 C12.156963,39.9466109 15.663316,43.4523224 15.663316,47.7809692 L15.663316,75.5126907 C15.663316,79.8394872 12.157914,83.3470489 7.831658,83.3470489 C3.506353,83.3470489 0,79.8413375 0,75.5126907 L0,47.7809692 Z M76.5671234,34.2594587 C75.696585,24.4517544 69.3293007,16.3456692 60.486261,12.2768812 L64.4225964,3.43572566 C64.8988943,2.36594438 64.4176771,1.11200527 63.3475161,0.635539004 C62.2795328,0.160042229 61.0236119,0.64025448 60.5472016,1.71028858 L56.5115834,10.7744355 C52.7930674,9.65642638 48.761696,9.20936716 44.5989411,9.57356103 C40.4334376,9.93799536 36.538552,11.0795686 33.0689397,12.8282607 L27.5188376,4.599896 C26.8638556,3.6288459 25.543627,3.37401753 24.574438,4.02774379 C23.6032725,4.68280298 23.3471104,6.00125442 24.0019368,6.97207516 L29.4161397,14.998961 C21.4177147,20.5419169 16.5575326,29.6283334 17.4030884,39.4356411 L76.5671234,34.2594587 Z M59.5401204,24.9722213 C60.886635,24.8544165 61.8827007,23.6673512 61.764896,22.3208368 C61.6470912,20.9743224 60.4600262,19.9782563 59.1135117,20.0960611 C57.7669972,20.2138659 56.7709314,21.4009311 56.8887361,22.7474455 C57.0065409,24.0939599 58.1936059,25.090026 59.5401204,24.9722213 Z M32.5587011,27.3327896 C33.9052156,27.2149848 34.9012814,26.0279195 34.7834766,24.6814051 C34.6656719,23.3348908 33.4786069,22.3388247 32.1320923,22.4566294 C30.7855778,22.5744342 29.789512,23.7614995 29.9073168,25.1080138 C30.0251215,26.4545282 31.2121865,27.4505943 32.5587011,27.3327896 Z M58.2738335,46.0484375 L58.2738335,54.8511206 C58.2738335,54.8511206 58.2738335,58.5189053 36.3369328,60.719576 L36.3369328,51.8819616 C36.302057,51.8819616 58.2738335,49.7162221 58.2738335,46.0484375 Z M36.302057,63.6188725 C36.302057,63.6188725 58.2389577,61.4182017 58.2389577,57.7504171 L58.2389577,66.5531002 C58.2389577,66.5531002 58.2389577,70.2208848 36.302057,72.4215556 L36.302057,63.6188725 L36.302057,63.6188725 Z M36.302057,84.1235352 L36.302057,75.320852 C36.302057,75.320852 58.2389577,73.1201812 58.2389577,69.4523966 L58.2389577,78.2550797 C58.2738335,78.290011 58.2738335,81.9228644 36.302057,84.1235352 L36.302057,84.1235352 L36.302057,84.1235352 Z" id="Rectangle-path"></path>
            </g>
        </g>
    </g>
</svg>